<svg width="410" height="119" viewBox="0 0 410.5 119" xmlns="http://www.w3.org/2000/svg">
    <rect width="128" height="119" rx="10" ry="10" fill="#393e46"></rect>

    <g transform="matrix(5.65245,0,0,5.65245,20.565,-13.801)" fill="#4fd1c5">
        <path d="M-0.1 5.98h4.96l2.9 9.2 2.88-9.2h4.74l-5.36 14.02h-4.8z"/>
    </g>

    <g transform="matrix(3.8977,0,0,3.8977,148.78,13.734)" fill="#eeeeee">
        <path d="M-0.2 9.06h4.62l1.74 6.86 1.78-6.86h4.5l-4.04 10.94h-4.6zM13.8095 9.06h4.5v10.94h-4.5zM17.6495 4.3q.64.64.64 1.64t-.64 1.64-1.64.64-1.64-.64-.64-1.64.64-1.64 1.64-.64 1.64.64zM30.829 9.38q.89.52 1.39 1.46t.5 2.18v6.98h-4.5v-5.68q0-.68-.36-1.09t-.94-.41q-.66 0-1.05.48t-.39 1.28v5.42h-4.5V9.06h4.5v1.56q.56-.86 1.41-1.31t1.91-.45q1.14 0 2.03.52zM39.4685 11.82q-.28 0-.45.1t-.17.26q0 .24.36.4t1.2.38q1.18.32 2.02.66t1.47 1.04.63 1.82-.61 1.96-1.73 1.3-2.62.46q-3.06 0-5.34-1.56l1.36-2.8q2.2 1.36 4.04 1.36.32 0 .5-.09t.18-.23q0-.22-.35-.37t-1.13-.35q-1.18-.3-2-.64t-1.45-1.04-.63-1.84.6-1.99 1.69-1.32 2.53-.47q2.62 0 5.08 1.38l-1.48 2.78q-2.44-1.2-3.7-1.2zM54.398 19.52q-.54.32-1.41.5t-1.77.18q-1.84 0-2.95-1.01t-1.11-2.71v-3.98h-1.5V9.66h1.5V6.6h4.48v3.06h2.56v2.84h-2.56v3.3q0 .44.24.69t.64.23q.38 0 1.12-.28zM64.4275 9.64q1.32.74 2.02 2.11t.7 3.21q0 .38-.02.58h-7.12q.22.64.69.97t1.13.33q1.18 0 2.22-.98l2.34 2.3q-.88.98-2.13 1.49t-2.83.51q-1.84 0-3.19-.69t-2.06-1.95-.71-2.94q0-1.72.72-3t2.05-1.98 3.07-.7q1.8 0 3.12.74zM62.2975 12.34q-.37-.44-.95-.44-.56 0-.93.42t-.51 1.14h2.72q.04-.68-.33-1.12z"/>
    </g>
</svg>
